<svg xmlns="http://www.w3.org/2000/svg" width="900" height="220" viewBox="0 0 900 220">
  <metadata><?xpacket begin="﻿" id="W5M0MpCehiHzreSzNTczkc9d"?>
<x:xmpmeta xmlns:x="adobe:ns:meta/" x:xmptk="Adobe XMP Core 5.6-c138 79.159824, 2016/09/14-01:09:01        ">
   <rdf:RDF xmlns:rdf="http://www.w3.org/1999/02/22-rdf-syntax-ns#">
      <rdf:Description rdf:about=""/>
   </rdf:RDF>
</x:xmpmeta>
                                                                                                    
                                                                                                    
                                                                                                    
                                                                                                    
                                                                                                    
                                                                                                    
                                                                                                    
                                                                                                    
                                                                                                    
                                                                                                    
                                                                                                    
                                                                                                    
                                                                                                    
                                                                                                    
                                                                                                    
                                                                                                    
                                                                                                    
                                                                                                    
                                                                                                    
                                                                                                    
                           
<?xpacket end="w"?></metadata>
<defs>
    <style>
      .cls-1 {
        fill: #0679eb;
      }

      .cls-1, .cls-2, .cls-3 {
        fill-rule: evenodd;
      }

      .cls-2 {
        fill: #fe8306;
      }

      .cls-3, .cls-4 {
        fill: #474e54;
      }
    </style>
  </defs>
  <path id="s" class="cls-1" d="M82.943,33.957q2.134,0.81,4.268,1.769A47.407,47.407,0,0,0,91.784,37.5a18.066,18.066,0,0,0,5.691.809,22.964,22.964,0,0,0,7.367-1.112,19.055,19.055,0,0,0,6.351-3.741l10.264-8.594a98.635,98.635,0,0,0-8.638-9.1,70.685,70.685,0,0,0-10.263-7.937A57.181,57.181,0,0,0,90.92,2.16,37.708,37.708,0,0,0,78.268-.014a55.625,55.625,0,0,0-17.427,2.78A48.013,48.013,0,0,0,45.751,10.8,40.157,40.157,0,0,0,35.132,23.695a36.906,36.906,0,0,0-4.014,17.44q0,10.415,3.607,17.44a38.407,38.407,0,0,0,9.4,11.93,56.29,56.29,0,0,0,13.109,8.24q7.317,3.337,14.836,6.167,4.573,1.82,8.739,3.134a53.419,53.419,0,0,1,7.367,2.881,16.206,16.206,0,0,1,5.081,3.691,7.932,7.932,0,0,1,1.88,5.46A10,10,0,0,1,93.1,106.3a17.44,17.44,0,0,1-5.132,4.5,26.811,26.811,0,0,1-6.707,2.78,25.979,25.979,0,0,1-6.656.96,17.585,17.585,0,0,1-8.129-1.82q-3.558-1.819-6.91-3.943t-6.859-3.943a16.843,16.843,0,0,0-7.875-1.819,20.467,20.467,0,0,0-5.843.859,26.8,26.8,0,0,0-5.437,2.275l-10.568,6.066a52.773,52.773,0,0,0,7.926,14.2,54.052,54.052,0,0,0,11.839,11.223,56.289,56.289,0,0,0,14.836,7.329A54.674,54.674,0,0,0,74.61,147.6a59.6,59.6,0,0,0,20.222-3.488,55.654,55.654,0,0,0,17.224-9.756A47.822,47.822,0,0,0,124,119.339a41.691,41.691,0,0,0,4.471-19.26,40.158,40.158,0,0,0-10.416-27.753,49.415,49.415,0,0,0-11.889-9.6A81.326,81.326,0,0,0,90.767,55.8q-6.607-2.223-11.534-3.589A72.772,72.772,0,0,1,71,49.476a13.345,13.345,0,0,1-4.929-3.185,7.319,7.319,0,0,1-1.626-5.055,5.783,5.783,0,0,1,1.169-3.64,9.245,9.245,0,0,1,3.1-2.527,15.489,15.489,0,0,1,4.42-1.466,28.471,28.471,0,0,1,5.132-.455A13.1,13.1,0,0,1,82.943,33.957Z"/>
  <path id="a" class="cls-1" d="M132.723,146.283h21.543a21.457,21.457,0,0,0,6.3-.961,23.381,23.381,0,0,0,5.894-2.729,26.22,26.22,0,0,0,4.928-4.095,18.223,18.223,0,0,0,3.405-5.055l6.909-16.076h57.922l7.113,16.076a19.94,19.94,0,0,0,3.455,5.409,22.644,22.644,0,0,0,4.776,4.044,21.362,21.362,0,0,0,5.742,2.528,24.034,24.034,0,0,0,6.453.859H288.6L224.991,1.4H196.335Zm75.1-89.274q0.813-2.021,1.372-3.842t0.864-3.235q0.405-1.718.609-3.134a17.593,17.593,0,0,0,.508,3.033q0.306,1.417.813,3.235a31.4,31.4,0,0,0,1.423,3.943l12.7,30.331H195.014Z"/>
  <path id="r" class="cls-1" d="M337.477,102.2h18.189l24.388,32.858a25.652,25.652,0,0,0,5.792,6.168,27.522,27.522,0,0,0,5.793,3.336,21,21,0,0,0,4.928,1.416,26.094,26.094,0,0,0,3.1.3h28.352L389.2,94.113a58.617,58.617,0,0,0,10.568-9.352A50.23,50.23,0,0,0,406.881,74.3,48.092,48.092,0,0,0,410.9,63.125a52.759,52.759,0,0,0,1.27-11.475,49.261,49.261,0,0,0-1.473-11.829,52.793,52.793,0,0,0-4.37-11.576,51.875,51.875,0,0,0-7.215-10.515,46.39,46.39,0,0,0-9.958-8.493,51.152,51.152,0,0,0-12.6-5.712A51.86,51.86,0,0,0,361.357,1.4H304.248V146.283h33.229V102.2Zm0-33.263V34.564h25.607a12.375,12.375,0,0,1,5.894,1.516,18.355,18.355,0,0,1,5.03,3.943,19.882,19.882,0,0,1,3.506,5.51,15.294,15.294,0,0,1,0,12.436,19.857,19.857,0,0,1-3.506,5.51,18.351,18.351,0,0,1-5.03,3.943,12.376,12.376,0,0,1-5.894,1.516H337.477Z"/>
  <path id="a-2" data-name="a" class="cls-2" d="M424.423,146.283h21.543a21.452,21.452,0,0,0,6.3-.961,23.381,23.381,0,0,0,5.894-2.729,26.259,26.259,0,0,0,4.929-4.095,18.219,18.219,0,0,0,3.4-5.055l6.91-16.076h57.922l7.113,16.076a19.893,19.893,0,0,0,3.455,5.409,22.594,22.594,0,0,0,4.776,4.044,21.355,21.355,0,0,0,5.741,2.528,24.034,24.034,0,0,0,6.453.859H580.3L516.692,1.4H488.036Zm75.095-89.274q0.813-2.021,1.372-3.842t0.864-3.235q0.4-1.718.61-3.134a17.4,17.4,0,0,0,.508,3.033q0.3,1.417.813,3.235a31.385,31.385,0,0,0,1.422,3.943l12.7,30.331H486.715Z"/>
  <path id="c" class="cls-2" d="M616.049,57.969a41.712,41.712,0,0,1,9.044-12.941,43.544,43.544,0,0,1,13.21-8.745,39.942,39.942,0,0,1,15.954-3.235A38.054,38.054,0,0,1,666.4,34.968a44.435,44.435,0,0,1,10.822,5.358,21.165,21.165,0,0,0,12.194,3.741,21.7,21.7,0,0,0,8.942-1.769,23.33,23.33,0,0,0,7.012-4.8l8.637-8.594A109.16,109.16,0,0,0,700.646,16.87a90.8,90.8,0,0,0-14.633-9.1,78.471,78.471,0,0,0-15.6-5.763A65.934,65.934,0,0,0,654.257-.014a74.346,74.346,0,0,0-19.815,2.629,76.139,76.139,0,0,0-17.885,7.431,74.007,74.007,0,0,0-34.4,44.081,73.143,73.143,0,0,0,0,39.329,74.256,74.256,0,0,0,34.4,44.082,75.975,75.975,0,0,0,17.885,7.43,74.347,74.347,0,0,0,19.815,2.629,65.917,65.917,0,0,0,16.157-2.022,78.215,78.215,0,0,0,15.6-5.763,90.612,90.612,0,0,0,14.633-9.1,109.075,109.075,0,0,0,13.362-12.031l-8.637-8.594a23.058,23.058,0,0,0-6.91-4.8,22.214,22.214,0,0,0-9.044-1.668,21.269,21.269,0,0,0-12.194,3.64,46.083,46.083,0,0,1-10.721,5.308,37.46,37.46,0,0,1-12.245,1.971,40.483,40.483,0,0,1-15.954-3.184,42.162,42.162,0,0,1-22.254-21.738A39.01,39.01,0,0,1,616.049,57.969Z"/>
  <path id="a-3" data-name="a" class="cls-2" d="M719.131,146.283h21.543a21.457,21.457,0,0,0,6.3-.961,23.381,23.381,0,0,0,5.894-2.729A26.22,26.22,0,0,0,757.8,138.5a18.219,18.219,0,0,0,3.4-5.055l6.91-16.076h57.922l7.113,16.076a19.94,19.94,0,0,0,3.455,5.409,22.644,22.644,0,0,0,4.776,4.044,21.348,21.348,0,0,0,5.742,2.528,24.027,24.027,0,0,0,6.452.859h21.442L811.4,1.4H782.743Zm75.1-89.274q0.812-2.021,1.372-3.842t0.864-3.235q0.4-1.718.609-3.134a17.593,17.593,0,0,0,.508,3.033q0.306,1.417.813,3.235a31.243,31.243,0,0,0,1.423,3.943l12.7,30.331h-31.1Z"/>
  <path id="It_ER_D_CONSULTING_copy" data-name="It    ER&amp;D    CONSULTING  copy" class="cls-3" d="M28.393,219.313h4.328v-43.1H28.393v43.1Zm25.641-38.877v38.877h4.417V180.436h9.658v-4.219H44.376v4.219h9.658Zm117.279,38.877h24.646v-4.219H175.642V198.161h20.317v-4.219H175.642V180.436h20.493v-4.219H171.313v43.1Zm38.567,0h4.329V199.3h2.447l15.577,20.01h5.355L222.012,199.3a21.93,21.93,0,0,0,8.539-1.393,10.366,10.366,0,0,0,4.755-4.033,11.461,11.461,0,0,0,1.664-6.19,10.717,10.717,0,0,0-2.415-7.113,11.164,11.164,0,0,0-6.272-3.77,52.52,52.52,0,0,0-9.775-.587H209.88v43.1Zm11.967-38.877a18.9,18.9,0,0,1,6.371.762,6.565,6.565,0,0,1,3.1,2.534,6.955,6.955,0,0,1,1.18,3.941,7.258,7.258,0,0,1-1.165,4.028,6.662,6.662,0,0,1-3.244,2.622,18.632,18.632,0,0,1-6.415.821l-7.461-.059V180.436h7.638Zm57.746,27.281-4.3-4.341-6.566-6.856a30.847,30.847,0,0,0,6.044-6.255,8.764,8.764,0,0,0,1.533-4.614,7.067,7.067,0,0,0-1.177-3.882,8.184,8.184,0,0,0-3.416-2.915,11.207,11.207,0,0,0-4.947-1.084,10.686,10.686,0,0,0-7.184,2.46,6.671,6.671,0,0,0-2.5,5.329,8.708,8.708,0,0,0,1.014,3.88,39.047,39.047,0,0,0,4.573,6.311q-6.3,4.954-8.342,8.191a12.031,12.031,0,0,0-2.045,6.463,9.4,9.4,0,0,0,3.033,7.136,11.243,11.243,0,0,0,8.039,2.857,19.548,19.548,0,0,0,7.155-1.318,37.125,37.125,0,0,0,8.8-5.656l5.745,5.89h6.038q-1.615-1.879-3.858-4.1-2.842-2.826-4.611-4.445a66.787,66.787,0,0,0,5.366-4.3l-2.933-3.091a68.263,68.263,0,0,1-5.455,4.341h0Zm-17.628-19.869a4.326,4.326,0,0,1-.591-2.2,3.262,3.262,0,0,1,1.447-2.637,5.976,5.976,0,0,1,3.75-1.113,6.368,6.368,0,0,1,3.882,1.084,3.153,3.153,0,0,1,1.462,2.578,5.521,5.521,0,0,1-1.121,2.959,21.611,21.611,0,0,1-4.749,4.775,34.624,34.624,0,0,1-4.08-5.449h0Zm7.5,15.49,6.831,7a36.559,36.559,0,0,1-7.979,5.075,11.47,11.47,0,0,1-4.514.937,7.383,7.383,0,0,1-5.133-1.89,5.722,5.722,0,0,1-2.095-4.353,8.074,8.074,0,0,1,1.712-4.528Q260,203.135,265.518,199q2.18,2.49,3.946,4.336h0Zm48.262,15.975q8.1,0,12.587-2.344a17.977,17.977,0,0,0,7.3-7.265,22.576,22.576,0,0,0,2.812-11.4,23.065,23.065,0,0,0-3.548-12.92,18.843,18.843,0,0,0-9.85-7.617q-4.387-1.552-14.1-1.553h-8.981v43.1h13.781ZM308.1,180.436h3.062q9.335,0,13.4,1.23a15.272,15.272,0,0,1,8.45,6.059,18.374,18.374,0,0,1,3.033,10.655,17.456,17.456,0,0,1-2.8,10.055,14.361,14.361,0,0,1-7.685,5.694q-3.476,1.112-12.455,1.112H308.1V180.436Zm169.986-2.915a24.625,24.625,0,0,0-10.954-2.388,23.06,23.06,0,0,0-16.71,6.46,21.3,21.3,0,0,0-6.669,15.923,22.65,22.65,0,0,0,5.506,15.352q6.567,7.53,17.932,7.529a25.466,25.466,0,0,0,10.821-2.241,21.813,21.813,0,0,0,8.083-6.343l-3.416-2.578a19.311,19.311,0,0,1-15.223,7.09,18.877,18.877,0,0,1-13.706-5.274,17.58,17.58,0,0,1-5.433-13.154,18.333,18.333,0,0,1,2.429-9.39,17.828,17.828,0,0,1,6.846-6.65,19.311,19.311,0,0,1,9.6-2.476,19.937,19.937,0,0,1,8.7,1.89,18.659,18.659,0,0,1,6.787,5.552l3.416-2.608A21.243,21.243,0,0,0,478.083,177.521Zm32.067,0.615a21.925,21.925,0,0,0-8.235,8.306,22.865,22.865,0,0,0-3.02,11.514,21.518,21.518,0,0,0,6.629,15.879,22.228,22.228,0,0,0,16.264,6.562,22.548,22.548,0,0,0,22.746-22.646,21.7,21.7,0,0,0-6.629-16.084,22.532,22.532,0,0,0-16.47-6.534A22.238,22.238,0,0,0,510.15,178.136Zm20.737,3.679a17.918,17.918,0,0,1,6.768,6.641,18.179,18.179,0,0,1,2.4,9.28,18.633,18.633,0,0,1-2.4,9.383,17.465,17.465,0,0,1-6.695,6.655,18.593,18.593,0,0,1-9.334,2.434,18.174,18.174,0,0,1-18.256-18.267,18.59,18.59,0,0,1,2.419-9.412,18.507,18.507,0,0,1,15.837-9.206A18.4,18.4,0,0,1,530.887,181.815Zm32.869,37.5V186.68l28.591,32.633h0.972v-43.1h-4.27v33.035l-28.826-33.035h-0.942v43.1h4.475Zm47.577-1.011a12.809,12.809,0,0,0,7.155,2.095,12.054,12.054,0,0,0,8.7-3.457,10.957,10.957,0,0,0,3.578-8.144,11.81,11.81,0,0,0-2.091-6.475q-2.091-3.222-7.714-7.354-4.741-3.486-5.6-4.306a10.046,10.046,0,0,1-2.149-2.871,6.607,6.607,0,0,1-.589-2.725,5.16,5.16,0,0,1,1.664-3.9,5.958,5.958,0,0,1,4.284-1.582,7.212,7.212,0,0,1,3.754,1.025,16.922,16.922,0,0,1,4.166,4.248l3.534-2.666a19.6,19.6,0,0,0-5.639-5.552,11.447,11.447,0,0,0-5.727-1.509,11.04,11.04,0,0,0-5.344,1.333,9.635,9.635,0,0,0-3.813,3.648,9.965,9.965,0,0,0-1.355,5.127,10.734,10.734,0,0,0,2.3,6.592q1.324,1.817,6.743,5.888a35.218,35.218,0,0,1,7.42,6.914,7.287,7.287,0,0,1,1.472,4.248,6.992,6.992,0,0,1-1,3.6,7.169,7.169,0,0,1-2.915,2.71,8.634,8.634,0,0,1-4.093,1.011q-5.094,0-8.981-7.119l-3.68,2.2A19.194,19.194,0,0,0,611.333,218.3ZM646.1,202.233q0,6.563.8,9.082a11.994,11.994,0,0,0,5.006,6.592,15.825,15.825,0,0,0,8.98,2.49,13.026,13.026,0,0,0,8.23-2.637,12.687,12.687,0,0,0,4.535-6.2,31.556,31.556,0,0,0,1.133-9.331V176.217h-4.328v26.016a32.04,32.04,0,0,1-.442,6.738,10.263,10.263,0,0,1-1.943,3.9,9.159,9.159,0,0,1-3.3,2.519,9.742,9.742,0,0,1-4.122.909,11.394,11.394,0,0,1-4.918-1.158,8.837,8.837,0,0,1-3.621-2.871,9.525,9.525,0,0,1-1.5-4.262,53.47,53.47,0,0,1-.177-5.772V176.217H646.1v26.016Zm45.369,17.08h20.994v-4.16H695.8V176.217h-4.328v43.1Zm39.244-38.877v38.877h4.417V180.436h9.658v-4.219H721.057v4.219h9.658Zm25.729,38.877h4.328v-43.1h-4.328v43.1Zm24.787,0V186.68l28.591,32.633h0.972v-43.1h-4.27v33.035L777.7,176.217h-0.942v43.1h4.476Zm78.435-42.2a27.233,27.233,0,0,0-10.364-1.978,24.807,24.807,0,0,0-12.19,2.974,22.376,22.376,0,0,0-11.572,19.644,21.587,21.587,0,0,0,5.388,14.5q7.008,8.145,19.022,8.144,9.892,0,15.8-5.874t5.962-15.864H853.041v4.16h13.81a14.787,14.787,0,0,1-5.477,9.727,17.371,17.371,0,0,1-11.307,3.75,20.917,20.917,0,0,1-10.129-2.5,18.574,18.574,0,0,1-7.243-6.885,17.716,17.716,0,0,1-2.621-9.243,17.36,17.36,0,0,1,2.533-9.009,18.118,18.118,0,0,1,7.14-6.753,20.123,20.123,0,0,1,9.7-2.49,21.437,21.437,0,0,1,8.407,1.831,25.649,25.649,0,0,1,7.935,5.376l3.357-3.164A30.945,30.945,0,0,0,859.666,177.111Z"/>
  <rect class="cls-4" x="384" y="179" width="4" height="40"/>
  <rect id="Rectangle_1_copy" data-name="Rectangle 1 copy" class="cls-4" x="114" y="179" width="4" height="40"/>
</svg>
